<svg width="801" height="794" viewBox="0 0 801 794" fill="none" xmlns="http://www.w3.org/2000/svg">
<g clip-path="url(#clip0_4_26)">
<path d="M655.193 792.196H98.061V220.563C98.061 98.944 197.005 -1.52588e-05 318.624 -1.52588e-05H434.63C556.249 -1.52588e-05 655.193 98.944 655.193 220.563V792.196Z" fill="#F2F2F2"/>
<path d="M539.188 792.196H98.061V220.563C97.9393 173.961 112.696 128.537 140.183 90.905C141.196 89.524 142.207 88.161 143.249 86.813C156.544 69.3755 172.366 54.0185 190.192 41.249C191.199 40.516 192.21 39.796 193.236 39.076C208.152 28.7536 224.288 20.3153 241.275 13.953C242.284 13.571 243.311 13.188 244.338 12.82C259.701 7.33645 275.627 3.57999 291.822 1.62C292.822 1.483 293.857 1.37601 294.887 1.26801C310.668 -0.419354 326.585 -0.419354 342.366 1.26801C343.394 1.37501 344.425 1.48301 345.44 1.62101C361.63 3.58158 377.552 7.33804 392.911 12.821C393.938 13.188 394.966 13.571 395.977 13.955C412.756 20.2365 428.702 28.5487 443.461 38.706C444.486 39.406 445.512 40.13 446.523 40.85C456.515 47.9825 465.9 55.9286 474.583 64.607C481.546 71.5679 488.035 78.9879 494.006 86.817C495.045 88.161 496.055 89.524 497.067 90.903C524.555 128.536 539.312 173.96 539.191 220.563L539.188 792.196Z" fill="#CCCCCC"/>
<path d="M503.317 395.336C516.805 395.336 527.739 384.402 527.739 370.914C527.739 357.426 516.805 346.492 503.317 346.492C489.829 346.492 478.895 357.426 478.895 370.914C478.895 384.402 489.829 395.336 503.317 395.336Z" fill="#717FE0"/>
<path d="M417.839 626.583H219.409C216.796 626.597 214.283 625.574 212.423 623.738C210.563 621.903 209.507 619.404 209.487 616.791V173.879C209.507 171.266 210.563 168.768 212.423 166.932C214.283 165.096 216.795 164.073 219.408 164.087H417.839C420.452 164.073 422.964 165.096 424.824 166.932C426.684 168.768 427.74 171.266 427.76 173.879V616.791C427.74 619.404 426.684 621.903 424.824 623.738C422.963 625.574 420.452 626.597 417.839 626.583Z" fill="white"/>
<path d="M427.761 307.399H209.487V310.452H427.761V307.399Z" fill="#CCCCCC"/>
<path d="M428.524 481.578H210.25V484.631H428.524V481.578Z" fill="#CCCCCC"/>
<path d="M281.228 164.088H278.175V628.111H281.228V164.088Z" fill="#CCCCCC"/>
<path d="M357.547 164.088H354.494V628.111H357.547V164.088Z" fill="#CCCCCC"/>
<path d="M651.802 291.1C651.801 292.883 651.592 294.659 651.181 296.394L633.593 371.24C632.999 373.769 631.913 376.157 630.396 378.266C628.879 380.374 626.96 382.163 624.751 383.53C622.542 384.897 620.084 385.814 617.52 386.23C614.955 386.646 612.334 386.552 609.806 385.954L539.318 364.082L535.876 363.019C533.641 364.554 531.123 365.629 528.468 366.18C525.813 366.731 523.075 366.748 520.414 366.229C510.183 364.419 503.1 356.093 504.594 347.62C506.088 339.147 515.594 333.758 525.824 335.558C528.502 335.98 531.07 336.931 533.377 338.355C535.685 339.779 537.686 341.648 539.265 343.852L539.317 343.862L539.496 343.894L600.848 351.483L606.005 289.257C606.48 283.352 609.222 277.86 613.655 273.932C618.089 270.003 623.871 267.941 629.79 268.18C635.709 268.418 641.306 270.936 645.41 275.209C649.514 279.481 651.805 285.175 651.805 291.099L651.802 291.1Z" fill="#ED9DA0"/>
<path d="M651.803 291.1C651.802 292.883 651.593 294.659 651.182 296.394L636.751 374.394C636.157 376.923 635.071 379.311 633.554 381.42C632.037 383.528 630.118 385.317 627.909 386.684C625.7 388.051 623.242 388.968 620.678 389.384C618.113 389.8 615.492 389.706 612.964 389.108L542.476 369.508L545.634 338.985L599.313 346.353L606.007 289.253C606.482 283.348 609.224 277.856 613.657 273.928C618.091 269.999 623.873 267.937 629.792 268.176C635.711 268.414 641.308 270.932 645.412 275.205C649.516 279.477 651.807 285.171 651.807 291.095L651.803 291.1Z" fill="#717FE0"/>
<path d="M743.35 702.124L726.325 714.676L738.877 731.701L755.902 719.15L743.35 702.124Z" fill="#ED9DA0"/>
<path d="M764.411 736.78L728.22 763.461C725.105 765.751 721.518 767.316 717.72 768.04L708.684 769.752C707.689 769.941 706.659 769.821 705.734 769.409C704.808 768.997 704.03 768.313 703.504 767.447C702.978 766.581 702.728 765.575 702.788 764.564C702.849 763.553 703.216 762.584 703.842 761.787L714.799 747.831L729.222 718.094L729.305 718.17C731.39 720.076 734.556 722.942 734.793 723.082C739.247 724.068 742.668 723.514 744.96 721.436C748.96 717.812 748.153 710.703 748.144 710.636L748.137 710.581L748.184 710.553C748.636 710.248 749.153 710.05 749.694 709.976C750.235 709.902 750.785 709.953 751.303 710.126C753.385 710.886 754.471 713.618 754.627 714.037C756.659 714.322 761.945 720.382 762.37 720.873C765.411 721.424 767.505 722.566 768.593 724.266C769.077 725.114 769.375 726.054 769.47 727.025C769.564 727.996 769.452 728.976 769.141 729.901C768.395 732.666 766.726 735.094 764.411 736.78Z" fill="#2F2E43"/>
<path d="M597.347 751.804H576.195V772.956H597.347V751.804Z" fill="#ED9DA0"/>
<path d="M593.737 792.197H548.774C544.908 792.192 541.092 791.322 537.606 789.652L529.317 785.668C528.404 785.229 527.647 784.522 527.146 783.641C526.645 782.76 526.426 781.748 526.516 780.739C526.606 779.73 527.002 778.772 527.65 777.994C528.299 777.216 529.17 776.654 530.146 776.384L547.246 771.652L576.501 756.275L576.523 756.386C577.07 759.157 577.918 763.343 578.023 763.597C581.023 767.034 584.105 768.618 587.183 768.305C592.552 767.761 596.121 761.561 596.157 761.498L596.184 761.45L596.239 761.456C596.784 761.479 597.317 761.626 597.796 761.888C598.276 762.149 598.689 762.517 599.003 762.963C600.228 764.81 599.481 767.654 599.358 768.083C600.825 769.518 601.483 777.533 601.534 778.183C603.655 780.431 604.663 782.592 604.534 784.607C604.421 785.576 604.104 786.51 603.604 787.348C603.104 788.185 602.433 788.908 601.634 789.468C599.392 791.253 596.607 792.217 593.741 792.201L593.737 792.197Z" fill="#2F2E43"/>
<path d="M683.653 421.153H582.278L566.118 757.462H601.818L624.884 604.594L717.443 726.888L751.235 696.314L683.651 604.593L683.653 421.153Z" fill="#2F2E43"/>
<path d="M660.351 213.043C660.349 206.137 658.434 199.368 654.817 193.485C651.201 187.602 646.025 182.837 639.864 179.718C633.703 176.599 626.798 175.249 619.916 175.817C613.033 176.385 606.444 178.85 600.877 182.937C595.311 187.024 590.987 192.574 588.384 198.97C585.781 205.366 585.002 212.359 586.134 219.171C587.265 225.983 590.262 232.349 594.792 237.561C599.322 242.773 605.208 246.627 611.796 248.696L619.019 296.429L655.839 265.746C655.839 265.746 647.885 255.615 643.619 244.19C648.765 240.786 652.987 236.159 655.907 230.724C658.827 225.288 660.354 219.213 660.351 213.043Z" fill="#ED9DA0"/>
<path d="M661.392 375.051L677.949 423.841L584.274 422.788L598.241 378.208L661.392 375.051Z" fill="#ED9DA0"/>
<path d="M652.933 251.216L611.392 265.658L572.12 468.402L652.934 478.269H692.434L662.254 276.654C660.903 267.63 657.731 258.976 652.931 251.216H652.933Z" fill="#717FE0"/>
<path d="M641.286 489.438L642.009 456.113L622.551 455.691L621.828 489.016C619.888 490.91 618.345 493.172 617.288 495.669C616.232 498.166 615.682 500.848 615.673 503.559C615.448 513.947 622.234 522.519 630.831 522.706C639.428 522.893 646.58 514.623 646.805 504.235C646.913 501.525 646.481 498.821 645.534 496.28C644.586 493.739 643.142 491.412 641.286 489.435V489.438Z" fill="#ED9DA0"/>
<path d="M652.166 235.98C654.109 236.311 656.389 231.603 658.566 227.017C663.128 217.417 666.028 211.317 666.248 202.689C666.436 195.337 664.394 197.267 662.407 180.922C661.752 175.531 652.542 175.541 650.667 172.981C647.501 168.657 652.359 166.874 644.481 164.281C629.725 159.416 623.053 166.974 613.681 167.625C613.444 167.641 608.799 172.185 606.204 172.42C601.658 172.832 595.104 172.12 592.161 165.198C589.412 158.722 587.591 177.646 590.048 179.987C592.199 182.248 594.133 184.706 595.824 187.329C595.924 187.74 591.493 174.385 590.048 178.339C589.008 181.184 588.057 199.583 590.702 200.133C592.914 200.593 611.296 207.653 631.676 193.733C632.399 193.239 631.716 194.027 634.237 200.133C637.416 207.833 638.137 208.254 638.078 210.376C637.958 214.969 634.509 216.322 635.517 219.339C636.022 220.587 636.92 221.638 638.074 222.331C639.229 223.023 640.578 223.322 641.917 223.18C644.617 222.622 645.082 219.28 647.039 219.339C648.715 219.39 650.703 221.914 650.88 224.461C651.253 229.827 643.309 231.303 641.917 238.546C641.131 242.634 650.375 235.681 652.16 235.985L652.166 235.98Z" fill="#090814"/>
</g>
<defs>
<clipPath id="clip0_4_26">
<rect width="800.012" height="793.179" fill="white"/>
</clipPath>
</defs>
</svg>
